<svg width="70" height="70" viewBox="0 0 70 70" fill="none" xmlns="http://www.w3.org/2000/svg">
<path d="M7.30353 10.9775V46.2837H4.37549V51.7297C4.37549 55.7442 7.65266 59.0214 11.6672 59.0214H58.3338C62.3483 59.0214 65.6255 55.7442 65.6255 51.7297V46.2837H62.3101V10.9775H7.30353ZM10.2202 13.8941H59.3923V18.6565H10.2202V13.8941ZM36.3392 25.3785C37.2583 25.6956 38.1774 26.0128 39.0964 26.3299C37.1456 31.9649 35.2196 37.6083 33.2689 43.243C32.3499 42.9259 31.4308 42.6088 30.5117 42.2917C32.4625 36.6567 34.3886 31.0132 36.3392 25.3785ZM26.8201 28.4775C27.5778 29.087 28.3354 29.6965 29.0931 30.3061C28.0198 31.6407 26.9473 32.9759 25.8745 34.3107C26.9473 35.6456 28.0199 36.9808 29.0931 38.3152C28.3354 38.9248 27.5778 39.5343 26.8201 40.1439C25.256 38.202 23.6984 36.2548 22.1374 34.3105C23.6984 32.3662 25.2559 30.4194 26.8201 28.4775ZM42.7991 28.4832C44.3545 30.4285 45.9173 32.3682 47.4759 34.3107C45.9171 36.2533 44.3545 38.1927 42.7991 40.1382C42.0414 39.5286 41.2838 38.9191 40.5261 38.3096C41.5978 36.9771 42.6681 35.6436 43.7391 34.3105C42.6682 32.9775 41.5979 31.6439 40.5261 30.3115C41.2838 29.702 42.0414 29.0927 42.7991 28.4832ZM7.29158 49.2017H62.7082V51.731C62.7082 54.18 60.7822 56.106 58.3332 56.106H11.6666C9.2176 56.106 7.29158 54.18 7.29158 51.731V49.2017Z" fill="#8BBEFF"/>
<path d="M30.625 51.0709V53.9875H39.375V51.0709H30.625Z" fill="#8BBEFF"/>
</svg>
