<svg width="287" height="287" viewBox="0 0 287 287" fill="none" xmlns="http://www.w3.org/2000/svg">
<path d="M248.733 94.4709C251.125 87.2959 252.321 78.925 252.321 70.5542C252.321 59.7917 249.929 49.0292 245.146 39.4625C234.383 39.4625 226.013 41.8542 217.642 45.4417C209.271 49.0292 200.9 55.0084 191.333 62.1834C178.179 58.5959 165.025 57.4 150.675 57.4C135.129 57.4 120.779 58.5959 106.429 62.1834C96.8625 55.0084 88.4917 49.0292 80.1208 44.2459C71.75 39.4625 63.3792 39.4625 52.6167 39.4625C47.8333 49.0292 45.4417 59.7917 45.4417 70.5542C45.4417 78.925 46.6375 87.2959 49.0292 94.4709C35.875 110.017 29.8958 129.15 29.8958 150.675C29.8958 171.004 32.2875 186.55 38.2667 198.508C41.8542 204.488 45.4417 210.467 50.225 215.25C55.0083 220.033 60.9875 223.621 66.9667 227.208C72.9458 229.6 80.1208 233.188 86.1 234.383C93.275 236.775 100.45 237.971 107.625 239.167C115.996 240.363 123.171 240.363 129.15 241.558C135.129 241.558 142.304 241.558 149.479 241.558C157.85 241.558 166.221 241.558 173.396 240.363C180.571 240.363 188.942 239.167 198.508 236.775C208.075 235.579 215.25 233.188 222.425 229.6C229.6 227.208 236.775 222.425 242.754 217.642C248.733 212.858 254.713 205.683 258.3 198.508C264.279 186.55 266.671 171.004 266.671 150.675C267.867 129.15 261.888 110.017 248.733 94.4709ZM231.992 198.508C228.404 204.488 224.817 209.271 220.033 212.858C215.25 216.446 209.271 218.838 202.096 221.229C194.921 223.621 188.942 224.817 181.767 226.013C175.788 227.208 168.613 227.208 161.438 227.208H137.521C129.15 227.208 123.171 227.208 115.996 226.013C110.017 224.817 102.842 223.621 95.6667 221.229C88.4917 218.838 82.5125 216.446 77.7292 212.858C72.9458 209.271 69.3583 204.488 65.7708 198.508C62.1833 192.529 60.9875 185.354 60.9875 176.983C60.9875 165.025 64.575 155.458 70.5542 148.283C77.7292 139.913 86.1 136.325 96.8625 136.325C100.45 136.325 110.017 137.521 124.367 139.913C131.542 141.108 138.717 141.108 147.088 141.108C155.458 141.108 162.633 141.108 169.808 139.913C184.158 137.521 193.725 136.325 197.313 136.325C208.075 136.325 217.642 139.913 223.621 148.283C230.796 156.654 233.188 166.221 233.188 176.983C236.775 185.354 234.383 192.529 231.992 198.508ZM113.604 154.263C111.213 150.675 107.625 149.479 102.842 149.479C99.2542 149.479 95.6667 150.675 92.0792 154.263C89.6875 157.85 87.2958 161.438 86.1 165.025C84.9042 168.613 84.9042 173.396 84.9042 176.983C84.9042 180.571 84.9042 184.158 86.1 188.942C87.2958 192.529 89.6875 196.117 92.0792 199.704C94.4708 203.292 98.0583 204.488 102.842 204.488C106.429 204.488 110.017 203.292 113.604 199.704C115.996 196.117 118.388 192.529 119.583 188.942C120.779 185.354 120.779 180.571 120.779 176.983C120.779 173.396 120.779 169.808 119.583 165.025C118.388 161.438 117.192 157.85 113.604 154.263ZM205.683 154.263C203.292 150.675 199.704 149.479 194.921 149.479C191.333 149.479 187.746 150.675 184.158 154.263C181.767 157.85 179.375 161.438 178.179 165.025C176.983 168.613 175.788 173.396 175.788 176.983C175.788 180.571 175.788 184.158 178.179 188.942C179.375 192.529 181.767 196.117 184.158 199.704C186.55 203.292 190.138 204.488 194.921 204.488C198.508 204.488 202.096 203.292 205.683 199.704C208.075 196.117 210.467 192.529 211.663 188.942C212.858 185.354 212.858 180.571 212.858 176.983C212.858 173.396 212.858 169.808 211.663 165.025C210.467 161.438 208.075 157.85 205.683 154.263Z" fill="url(#paint0_linear_42_612)"/>
<defs>
<linearGradient id="paint0_linear_42_612" x1="30.0202" y1="139.971" x2="268.388" y2="139.971" gradientUnits="userSpaceOnUse">
<stop stop-color="#1245C6"/>
<stop offset="1" stop-color="#9909B7"/>
</linearGradient>
</defs>
</svg>
