<svg width="92" height="92" viewBox="0 0 92 92" fill="none" xmlns="http://www.w3.org/2000/svg">
<g clip-path="url(#clip0_42_600)">
<path fill-rule="evenodd" clip-rule="evenodd" d="M10.1802 91.6217H81.4415C87.0639 91.6217 91.6217 87.0639 91.6217 81.4415V10.1802C91.6217 4.55782 87.0639 0 81.4415 0H10.1802C4.55782 0 0 4.55782 0 10.1802V81.4415C0 87.0639 4.55782 91.6217 10.1802 91.6217Z" fill="#ECC3DD"/>
<path fill-rule="evenodd" clip-rule="evenodd" d="M45.8089 16.5427C28.9448 16.5427 15.2703 30.2696 15.2703 47.2063C15.2703 60.751 24.0202 72.2434 36.1581 76.2984C37.6852 76.5801 38.2425 75.6334 38.2425 74.8209C38.2425 74.0927 38.2158 72.1648 38.2005 69.6065C29.7045 71.4596 27.9122 65.4959 27.9122 65.4959C26.5245 61.9545 24.5222 61.0117 24.5222 61.0117C21.7487 59.1087 24.7321 59.1471 24.7321 59.1471C27.7957 59.3636 29.4087 62.3071 29.4087 62.3071C32.1344 66.9926 36.5571 65.6397 38.2979 64.854C38.5747 62.8724 39.3649 61.5214 40.2372 60.7549C33.4553 59.9807 26.326 57.3514 26.326 45.6023C26.326 42.2544 27.5152 39.5179 29.4697 37.3735C29.1548 36.5973 28.1069 33.4814 29.7675 29.2596C29.7675 29.2596 32.3329 28.4356 38.1662 32.4024C40.6037 31.7221 43.2149 31.383 45.8128 31.3695C48.4068 31.383 51.0199 31.7221 53.4594 32.4024C59.2888 28.4356 61.8485 29.2596 61.8485 29.2596C63.5148 33.4814 62.4669 36.5973 62.152 37.3735C64.1104 39.5179 65.2919 42.2544 65.2919 45.6023C65.2919 57.3802 58.1512 59.973 51.3482 60.7319C52.4439 61.6786 53.4212 63.5489 53.4212 66.41C53.4212 70.5091 53.383 73.8148 53.383 74.8209C53.383 75.6411 53.9327 76.5954 55.4827 76.2946C67.6092 72.2319 76.3514 60.7472 76.3514 47.2063C76.3514 30.2696 62.6769 16.5427 45.8089 16.5427Z" fill="white"/>
</g>
<defs>
<clipPath id="clip0_42_600">
<rect width="91.6217" height="91.6217" fill="white"/>
</clipPath>
</defs>
</svg>
