<svg width="92" height="92" viewBox="0 0 92 92" fill="none" xmlns="http://www.w3.org/2000/svg">
<g clip-path="url(#clip0_42_606)">
<path fill-rule="evenodd" clip-rule="evenodd" d="M10.5584 91.6217H81.8197C87.4421 91.6217 91.9999 87.0639 91.9999 81.4415V10.1802C91.9999 4.55782 87.4421 0 81.8197 0H10.5584C4.93604 0 0.37822 4.55782 0.37822 10.1802V81.4415C0.37822 87.0639 4.93604 91.6217 10.5584 91.6217Z" fill="#ECC3DD"/>
<path fill-rule="evenodd" clip-rule="evenodd" d="M79.2747 78.8966H65.6786V55.7393C65.6786 49.3902 63.2661 45.8422 58.2408 45.8422C52.7739 45.8422 49.9177 49.5345 49.9177 55.7393V78.8966H36.8148V34.7824H49.9177V40.7246C49.9177 40.7246 53.8573 33.4347 63.2187 33.4347C72.5757 33.4347 79.2747 39.1486 79.2747 50.9662V78.8966ZM21.1831 29.006C16.72 29.006 13.1035 25.3611 13.1035 20.8657C13.1035 16.3703 16.72 12.7253 21.1831 12.7253C25.6463 12.7253 29.2607 16.3703 29.2607 20.8657C29.2607 25.3611 25.6463 29.006 21.1831 29.006ZM14.4174 78.8966H28.0803V34.7824H14.4174V78.8966Z" fill="white"/>
</g>
<defs>
<clipPath id="clip0_42_606">
<rect width="91.6217" height="91.6217" fill="white" transform="translate(0.37822)"/>
</clipPath>
</defs>
</svg>
